<svg width="903" height="883" viewBox="0 0 903 883" fill="none" xmlns="http://www.w3.org/2000/svg">
<rect width="712" height="803" transform="translate(40 40)" fill="#FDF7EB"/>
<path d="M574.206 513.929C574.491 514.081 574.768 514.255 575.027 514.464C575.627 514.951 576.08 515.588 576.528 516.214C576.603 516.325 576.678 516.437 576.753 516.548L576.766 516.561C576.849 516.61 576.906 516.677 576.986 516.729C577.713 516.486 578.293 515.872 578.443 515.065C578.531 514.586 586.831 466.863 547.584 429.958C546.71 429.133 545.328 429.174 544.502 430.054C543.679 430.932 543.72 432.311 544.598 433.137C580.418 466.822 574.835 509.826 574.206 513.929Z" fill="black" fill-opacity="0.1"/>
<path d="M525.751 438.99C520.617 438.99 514.845 438.077 508.76 435.507L506.565 434.583L507.678 432.479C512.699 422.965 529.121 421.813 536.13 421.769C531.453 405.207 541.961 389.655 542.44 388.961L544.231 386.355L546.03 388.956C546.7 389.927 562.283 412.933 547.857 432.823L547.606 433.167L547.244 433.392C546.741 433.713 538.087 438.99 525.751 438.99ZM513.033 432.476C529.013 437.963 542.295 431.185 544.586 429.898C553.955 416.543 547.665 401.014 544.244 394.528C541.412 399.974 536.663 411.781 541.216 423.203L542.481 426.381L539.065 426.189C533.407 425.874 518.82 426.508 513.033 432.476Z" fill="black" fill-opacity="0.1"/>
<path d="M514.602 430.701C514.475 430.701 514.345 430.691 514.219 430.667C512.803 430.416 479.514 424.249 476.905 401.354C475.678 390.597 480.177 379.706 488.935 372.221C497.235 365.13 507.634 362.397 516.734 364.923C535.418 370.097 542.743 394.666 543.046 395.709C543.382 396.866 542.714 398.075 541.56 398.411C540.401 398.75 539.192 398.082 538.855 396.925C538.791 396.693 531.896 373.648 515.572 369.126C507.984 367.024 498.863 369.483 491.772 375.539C484.113 382.08 480.179 391.547 481.238 400.862C483.479 420.524 514.669 426.314 514.982 426.371C516.168 426.583 516.959 427.714 516.747 428.9C516.558 429.958 515.637 430.701 514.602 430.701Z" fill="black" fill-opacity="0.1"/>
<path d="M537.262 417.96C536.38 417.96 535.549 417.421 535.22 416.546C534.736 415.263 522.877 385.142 481.953 387.067C480.742 387.096 479.727 386.195 479.67 384.991C479.614 383.788 480.543 382.766 481.746 382.709C525.988 380.617 539.175 414.673 539.307 415.017C539.726 416.145 539.152 417.398 538.028 417.82C537.775 417.916 537.516 417.96 537.262 417.96Z" fill="black" fill-opacity="0.1"/>
<path d="M558.979 495.446C544.633 495.446 532.934 488.699 519.23 479.702L517.449 478.532L519.442 477.771C558.415 462.913 575.662 490.888 575.833 491.173L576.537 492.358L575.22 492.772C569.35 494.62 564.002 495.446 558.979 495.446ZM522.248 479.068C539.027 489.959 552.954 496.976 573.17 491.113C569.598 486.121 553.966 467.957 522.248 479.068Z" fill="black" fill-opacity="0.1"/>
<path d="M574.895 492.822C574.732 492.822 574.571 492.786 574.416 492.711C558.077 484.729 530.712 481.053 530.44 481.017C529.843 480.937 529.421 480.391 529.501 479.793C529.579 479.195 530.132 478.765 530.725 478.853C531.002 478.89 558.711 482.614 575.374 490.751C575.917 491.015 576.14 491.667 575.876 492.208C575.684 492.597 575.296 492.822 574.895 492.822Z" fill="black" fill-opacity="0.1"/>
<path d="M578.05 497.485L577.491 496.222C577.356 495.92 564.491 465.672 599.136 442.458L600.909 441.273L600.834 443.403C600.057 465.522 598.049 482.288 579.15 496.652L578.05 497.485ZM598.572 445.5C571.546 464.745 577.09 488.215 578.997 494.007C595.455 480.887 597.769 465.48 598.572 445.5Z" fill="black" fill-opacity="0.1"/>
<path d="M578.493 496.875C578.433 496.875 578.374 496.869 578.314 496.862C577.719 496.763 577.318 496.204 577.414 495.609C580.4 477.308 593.372 452.542 593.502 452.293C593.779 451.758 594.441 451.556 594.974 451.835C595.507 452.117 595.712 452.777 595.432 453.308C595.303 453.554 582.497 478.009 579.567 495.958C579.479 496.494 579.016 496.875 578.493 496.875Z" fill="black" fill-opacity="0.1"/>
<path d="M553.384 461.746C542.781 461.746 534.144 456.766 524.029 450.128L522.246 448.958L524.239 448.2C553.094 437.195 565.895 457.957 566.025 458.169L566.729 459.355L565.412 459.769C561.063 461.133 557.103 461.746 553.384 461.746ZM527.063 449.499C538.991 457.201 549.015 462.121 563.341 458.105C560.362 454.121 549.145 442.029 527.063 449.499Z" fill="black" fill-opacity="0.1"/>
<path d="M565.086 459.815C564.923 459.815 564.762 459.779 564.61 459.706C552.642 453.862 532.586 451.168 532.387 451.14C531.786 451.059 531.367 450.513 531.447 449.915C531.528 449.318 532.079 448.891 532.672 448.976C533.508 449.087 553.284 451.745 565.567 457.745C566.111 458.011 566.333 458.661 566.069 459.204C565.878 459.59 565.489 459.815 565.086 459.815Z" fill="black" fill-opacity="0.1"/>
<path d="M567.289 463.405L566.73 462.142C566.632 461.917 557.081 439.472 582.741 422.282L584.513 421.094L584.438 423.226C583.864 439.56 582.378 451.939 568.392 462.569L567.289 463.405ZM582.171 425.338C563.565 438.903 566.792 455.167 568.249 459.903C579.787 450.529 581.566 439.519 582.171 425.338Z" fill="black" fill-opacity="0.1"/>
<path d="M567.732 462.792C567.672 462.792 567.613 462.786 567.553 462.779C566.961 462.68 566.557 462.121 566.653 461.526C568.855 448.034 578.113 430.359 578.504 429.614C578.786 429.078 579.443 428.879 579.977 429.156C580.51 429.438 580.714 430.098 580.435 430.628C580.339 430.807 570.949 448.738 568.806 461.875C568.718 462.411 568.255 462.792 567.732 462.792Z" fill="black" fill-opacity="0.1"/>
<path d="M613.318 697.636C589.277 694.106 572.231 682.919 560.91 672.057C560.83 672.329 560.727 672.595 560.589 672.839C560.375 673.216 560.157 673.594 559.942 673.972C559.492 674.759 558.894 675.235 558.247 675.528C570.103 686.804 587.822 698.306 612.686 701.955C612.793 701.971 612.899 701.979 613.005 701.979C614.069 701.979 615 701.2 615.161 700.115C615.337 698.92 614.511 697.812 613.318 697.636Z" fill="black" fill-opacity="0.1"/>
<path d="M640.369 735.801L637.403 734.696C636.298 734.285 610.359 724.328 610.818 699.756L610.825 699.329L610.991 698.938C611.325 698.162 619.366 679.871 641.353 675.194L643.679 674.7L643.969 677.06C645.294 687.737 632.48 698.074 626.755 702.119C640.061 713.031 640.341 731.798 640.346 732.639L640.369 735.801ZM615.176 700.287C615.127 716.602 629.168 725.741 635.685 729.103C634.89 723.016 632.035 710.619 621.768 703.851L618.913 701.969L621.825 700.173C626.652 697.196 638.257 688.332 639.585 680.125C623.337 684.76 616.32 697.921 615.176 700.287Z" fill="black" fill-opacity="0.1"/>
<path d="M665.962 739.184C650.728 739.184 636.698 728.021 635.997 727.452C635.06 726.696 634.912 725.322 635.671 724.385C636.426 723.448 637.795 723.298 638.738 724.056C638.927 724.209 657.768 739.174 673.74 733.542C681.168 730.925 687.245 723.691 689.595 714.666C692.131 704.922 689.95 694.906 683.751 687.874C670.673 673.031 641.766 686.111 641.481 686.248C640.391 686.756 639.092 686.277 638.587 685.182C638.083 684.087 638.556 682.793 639.651 682.286C640.956 681.683 671.786 667.699 687.027 684.988C694.184 693.11 696.723 704.614 693.816 715.766C691.062 726.334 684.1 734.515 675.192 737.657C672.133 738.734 669.022 739.184 665.962 739.184Z" fill="black" fill-opacity="0.1"/>
<path d="M655.712 717.043C639.272 717.043 628.203 709.599 628.022 709.475C627.033 708.789 626.785 707.435 627.468 706.444C628.149 705.45 629.505 705.204 630.501 705.885C631.632 706.661 658.58 724.61 691.054 699.598C692.011 698.863 693.381 699.044 694.116 699.997C694.851 700.952 694.672 702.321 693.72 703.056C679.767 713.794 666.567 717.043 655.712 717.043Z" fill="black" fill-opacity="0.1"/>
<path d="M592.004 691.259C585.787 691.259 581.524 689.408 581.429 689.364L580.171 688.797L581.012 687.705C591.743 673.796 604.135 672.399 620.471 671.941L622.604 671.881L621.403 673.646C611.563 688.099 600.12 691.259 592.004 691.259ZM583.66 687.879C588.383 689.444 604.494 692.941 618.341 674.187C604.15 674.692 593.122 676.392 583.66 687.879Z" fill="black" fill-opacity="0.1"/>
<path d="M581.873 689.46C581.345 689.46 580.881 689.077 580.798 688.539C580.705 687.943 581.112 687.387 581.71 687.291C594.87 685.241 612.858 675.981 613.039 675.888C613.567 675.613 614.23 675.82 614.507 676.353C614.786 676.887 614.574 677.547 614.038 677.824C613.29 678.212 595.548 687.34 582.041 689.447C581.986 689.455 581.93 689.46 581.873 689.46Z" fill="black" fill-opacity="0.1"/>
<path d="M587.466 730.345L586.309 728.554C577.437 714.832 571.577 703.824 576.968 687.105L577.393 685.793L578.573 686.507C578.783 686.634 599.452 699.585 588.24 728.358L587.466 730.345ZM578.612 689.188C574.499 703.49 579.339 713.543 586.959 725.526C594.581 703.493 582.574 692.196 578.612 689.188Z" fill="black" fill-opacity="0.1"/>
<path d="M586.438 721.146C585.897 721.146 585.426 720.743 585.358 720.191C585.332 719.99 582.778 699.913 577.022 687.909C576.763 687.366 576.991 686.716 577.532 686.455C578.078 686.191 578.727 686.421 578.989 686.967C584.9 699.295 587.418 719.086 587.522 719.922C587.597 720.52 587.173 721.064 586.575 721.139C586.531 721.144 586.484 721.146 586.438 721.146Z" fill="black" fill-opacity="0.1"/>
<path d="M472.533 566.913C474.899 569.781 475.843 571.929 475.6 573.878C475.341 576.075 473.509 577.449 471.754 578.733C469.482 580.397 467.147 582.139 466.922 586.032C466.795 588.34 467.802 590.468 469.909 592.352C475.999 597.8 489.747 600.013 503.34 597.733C509.083 596.77 515.225 595.805 521.066 594.912C521.128 596.009 521.315 596.928 521.618 597.751C515.753 598.647 509.585 599.617 503.819 600.582C489.191 603.033 474.79 600.593 467.983 594.505C465.227 592.042 463.863 589.055 464.036 585.871C464.323 580.584 467.631 578.166 470.046 576.399C471.632 575.237 472.572 574.421 472.732 573.515C472.864 572.465 472.047 570.86 470.305 568.751C466.689 564.364 467.318 560.704 468.475 558.403C471.384 552.645 480.453 549.474 484.69 549.578C484.798 548.954 484.669 547.282 484.55 546.047C484.149 541.847 483.603 536.104 487.301 531.789C489.957 528.694 494.434 526.941 500.607 526.584C502.809 526.458 504.999 526.869 507.158 527.692C506.976 528.295 506.971 528.981 507.222 529.721C507.378 530.174 507.538 530.604 507.704 531.023C505.405 529.923 503.089 529.338 500.773 529.473C495.415 529.781 491.623 531.194 489.496 533.673C488.233 535.146 487.609 536.937 487.34 538.793C486.991 541.192 487.231 543.7 487.428 545.776C487.692 548.547 487.883 550.54 486.755 551.723C486.395 552.096 485.748 552.533 484.71 552.476C481.377 552.295 473.32 555.228 471.058 559.708C469.909 561.967 470.395 564.322 472.533 566.913Z" fill="black" fill-opacity="0.1"/>
<path d="M584.964 657.224C584.879 655.806 584.599 654.631 584.146 653.57C587.087 655.379 590.073 656.37 593.055 656.199C598.412 655.891 602.204 654.478 604.332 651.999C607.233 648.621 606.749 643.577 606.399 639.897C606.133 637.13 605.946 635.127 607.072 633.949C607.432 633.574 608.079 633.139 609.117 633.196C612.451 633.377 620.508 630.445 622.77 625.965C623.914 623.708 623.424 621.35 621.292 618.762C618.929 615.894 617.982 613.746 618.225 611.797C618.559 609.592 620.319 608.225 622.071 606.939C624.341 605.277 626.685 603.564 626.903 599.64C627.03 597.332 626.023 595.204 623.916 593.32C617.826 587.874 604.08 585.659 590.485 587.937C584.633 588.918 578.37 589.904 572.435 590.807C572.582 589.839 572.287 588.822 571.343 588.051C577.453 587.121 583.957 586.099 590.009 585.084C604.637 582.633 619.037 585.077 625.844 591.164C628.598 593.625 629.962 596.612 629.789 599.796C629.768 600.181 629.732 600.551 629.68 600.908C629.023 605.427 626.018 607.63 623.779 609.271C622.192 610.436 621.191 611.246 621.092 612.154C620.96 613.205 621.778 614.81 623.52 616.921C627.136 621.303 626.515 624.965 625.35 627.266C622.441 633.025 613.372 636.196 609.138 636.092C609.029 636.692 609.158 638.388 609.278 639.622C609.679 643.82 610.23 649.571 606.526 653.88C603.868 656.978 599.393 658.728 593.223 659.085C590.436 659.246 587.677 658.542 584.964 657.224Z" fill="black" fill-opacity="0.1"/>
<path d="M530.481 572.578L529.932 572.498C526.448 567.979 522.771 563.259 519.284 558.866C510.06 547.248 505.231 533.425 507.27 524.563C508.093 520.958 510.047 518.32 512.918 516.933C517.68 514.632 521.399 516.353 524.117 517.611C525.902 518.437 527.041 518.926 527.939 518.566C528.923 518.173 529.932 516.682 530.936 514.135C533.025 508.85 536.532 507.626 539.105 507.53C545.552 507.287 552.716 513.693 554.672 517.451C555.314 517.251 556.673 516.32 557.695 515.621C561.176 513.24 565.941 509.979 571.506 511.133C575.502 511.959 579.2 515.031 582.498 520.259C584.845 523.981 585.358 528.647 584.607 533.818C584.597 533.893 584.579 533.968 584.568 534.043C583.608 533.704 582.531 533.761 581.68 534.362C582.521 529.493 582.169 525.156 580.054 521.801C577.192 517.262 574.12 514.622 570.923 513.962C566.562 513.058 562.385 515.918 559.331 518.007C557.035 519.578 555.376 520.712 553.8 520.295C553.298 520.163 552.604 519.806 552.151 518.869C550.697 515.867 544.234 510.232 539.216 510.419C536.687 510.514 534.86 512.078 533.628 515.199C532.261 518.657 530.841 520.523 529.016 521.25C526.917 522.091 524.877 521.146 522.905 520.233C520.351 519.05 517.711 517.828 514.178 519.534C512.097 520.541 510.72 522.448 510.091 525.207C510.006 525.575 509.936 525.95 509.879 526.338C508.712 534.375 513.378 546.772 521.552 557.07C525.286 561.775 529.223 566.841 532.927 571.649C531.998 571.862 531.19 572.177 530.481 572.578Z" fill="black" fill-opacity="0.1"/>
<path d="M539.153 668.219C538.511 668.421 537.152 669.347 536.13 670.049C532.649 672.43 527.884 675.691 522.32 674.539C518.324 673.714 514.625 670.641 511.328 665.413C509.104 661.888 508.556 657.501 509.141 652.651C510.264 652.167 511.266 651.655 512.192 651.062C511.297 656.029 511.62 660.46 513.774 663.868C516.636 668.405 519.708 671.045 522.905 671.705C527.266 672.608 531.445 669.748 534.494 667.66C536.79 666.089 538.449 664.955 540.025 665.372C540.527 665.506 541.221 665.861 541.674 666.798C543.128 669.803 549.594 675.437 554.61 675.248C557.138 675.153 558.965 673.592 560.197 670.471C561.564 667.013 562.987 665.147 564.812 664.419C566.911 663.581 568.951 664.523 570.923 665.434C573.477 666.617 576.117 667.838 579.647 666.133C581.728 665.126 583.105 663.219 583.734 660.462C585.559 652.46 580.843 639.392 572.274 628.597C568.624 624 564.791 619.067 561.163 614.357C561.929 613.637 562.56 612.899 563.104 612.141C566.826 616.973 570.786 622.072 574.538 626.8C583.305 637.847 588.1 650.847 586.806 659.748C586.739 660.211 586.654 660.664 586.553 661.107C585.73 664.709 583.776 667.347 580.905 668.734C576.146 671.035 572.424 669.314 569.709 668.058C567.923 667.23 566.784 666.744 565.886 667.103C564.903 667.497 563.893 668.988 562.889 671.534C560.8 676.819 557.296 678.044 554.721 678.139C548.274 678.38 541.112 671.977 539.153 668.219Z" fill="black" fill-opacity="0.1"/>
<path d="M625.313 593.02C628.217 588.524 629.309 584.642 628.569 581.469C627.554 577.133 623.203 574.543 620.025 572.651C617.636 571.227 615.907 570.2 615.625 568.592C615.589 568.378 615.571 568.116 615.615 567.826C615.674 567.423 615.845 566.964 616.226 566.496C618.34 563.916 620.739 555.683 618.457 551.21C617.308 548.956 615.123 547.952 611.771 548.146C608.063 548.358 605.77 547.853 604.341 546.505C602.695 544.952 602.695 542.706 602.695 540.532C602.695 537.718 602.695 534.807 599.662 532.322C597.873 530.857 595.564 530.409 592.8 530.997C584.808 532.689 574.898 542.475 568.704 554.787C566.005 560.152 563.057 565.87 560.249 571.248C559.441 570.554 558.668 570.031 557.813 569.664C560.578 564.363 563.469 558.76 566.124 553.485C572.791 540.234 583.271 530.06 592.202 528.165C595.818 527.399 599.033 528.062 601.496 530.086C605.586 533.437 605.588 537.54 605.588 540.532C605.588 542.499 605.625 543.741 606.329 544.401C607.097 545.128 608.875 545.418 611.608 545.26C617.282 544.937 619.865 547.602 621.035 549.898C623.964 555.652 621.159 564.837 618.573 568.194C619.023 568.691 620.439 569.535 621.503 570.169C625.126 572.325 630.088 575.28 631.382 580.811C631.721 582.263 631.773 583.806 631.535 585.434C631.123 588.257 629.85 591.329 627.717 594.622C627.619 594.772 627.495 594.901 627.391 595.046C627.057 594.096 626.322 593.317 625.313 593.02Z" fill="black" fill-opacity="0.1"/>
<path d="M492.327 655.583C488.237 652.229 488.237 648.13 488.235 645.135C488.235 643.168 488.199 641.926 487.497 641.266C486.729 640.538 484.95 640.249 482.217 640.409C476.544 640.735 473.961 638.067 472.791 635.774C469.862 630.025 472.665 620.832 475.25 617.478C474.8 616.978 473.384 616.137 472.32 615.506C468.697 613.347 463.735 610.394 462.441 604.861C461.512 600.888 462.747 596.239 466.104 591.05C466.256 590.815 466.45 590.61 466.616 590.382C466.738 590.535 466.867 590.685 467.012 590.822C466.807 590.628 467.271 591.076 467.315 591.12C467.636 591.456 467.957 591.79 468.293 592.109C468.417 592.225 468.555 592.313 468.694 592.401C468.643 592.476 468.578 592.541 468.526 592.619C466.621 595.559 465.49 598.243 465.143 600.637C464.96 601.907 464.993 603.098 465.252 604.201C466.267 608.536 470.617 611.129 473.796 613.021C476.187 614.442 477.913 615.472 478.195 617.077C478.286 617.587 478.252 618.366 477.595 619.173C475.478 621.756 473.084 629.992 475.361 634.461C476.511 636.716 478.695 637.717 482.047 637.523C485.755 637.311 488.049 637.816 489.477 639.167C491.121 640.72 491.121 642.966 491.121 645.14C491.121 647.954 491.121 650.865 494.154 653.352C495.942 654.817 498.251 655.262 501.018 654.678C509.01 652.982 518.92 643.199 525.116 630.887C527.886 625.382 530.916 619.507 533.789 614.007C534.501 614.566 535.308 615.066 536.289 615.464C533.44 620.923 530.44 626.738 527.697 632.189C521.03 645.438 510.55 655.614 501.618 657.506C498.005 658.267 494.791 657.605 492.327 655.583Z" fill="black" fill-opacity="0.1"/>
<path d="M542.52 619.885C527.244 617.664 516.623 603.429 518.846 588.154C521.067 572.878 535.299 562.259 550.577 564.48C565.852 566.7 576.471 580.933 574.251 596.208C572.027 611.486 557.795 622.105 542.52 619.885ZM543.149 615.567C556.043 617.441 568.06 608.476 569.934 595.582C571.807 582.687 562.842 570.673 549.948 568.797C537.054 566.923 525.037 575.886 523.163 588.78C521.287 601.677 530.252 613.694 543.149 615.567Z" fill="black" fill-opacity="0.1"/>
<path d="M603.361 604.288C603.174 604.288 602.985 604.242 602.815 604.141C588.409 595.807 572.968 595.81 572.823 595.804H572.815C572.215 595.804 571.728 595.321 571.726 594.72C571.72 594.117 572.204 593.625 572.807 593.623C573.421 593.625 588.963 593.607 603.907 602.252C604.427 602.554 604.608 603.222 604.305 603.742C604.104 604.092 603.736 604.288 603.361 604.288Z" fill="black" fill-opacity="0.1"/>
<path d="M606.452 622.188C606.198 622.188 605.947 622.1 605.74 621.924C596.995 614.39 571.522 603.564 571.268 603.455C570.712 603.219 570.453 602.58 570.689 602.026C570.922 601.47 571.561 601.214 572.117 601.446C573.176 601.894 598.162 612.513 607.166 620.27C607.622 620.664 607.671 621.352 607.28 621.808C607.063 622.059 606.757 622.188 606.452 622.188Z" fill="black" fill-opacity="0.1"/>
<path d="M588.843 632.119C588.434 632.119 588.04 631.889 587.854 631.493C583.677 622.584 565.762 609.468 565.583 609.336C565.096 608.981 564.99 608.298 565.342 607.811C565.699 607.322 566.377 607.216 566.867 607.57C567.622 608.122 585.416 621.156 589.831 630.564C590.088 631.11 589.852 631.759 589.306 632.016C589.156 632.086 589.001 632.119 588.843 632.119Z" fill="black" fill-opacity="0.1"/>
<path d="M567.537 577.77C567.374 577.77 567.204 577.734 567.048 577.654C566.51 577.385 566.293 576.727 566.562 576.191C567.123 575.076 583.512 565.148 598.559 561.253C599.147 561.105 599.737 561.454 599.889 562.037C600.04 562.619 599.69 563.214 599.105 563.367C584.676 567.099 569.686 576.267 568.368 577.39C568.159 577.633 567.853 577.77 567.537 577.77Z" fill="black" fill-opacity="0.1"/>
<path d="M564.463 573.65C564.313 573.65 564.163 573.619 564.018 573.554C563.47 573.308 563.221 572.664 563.467 572.113C567.044 564.097 580.903 549.655 581.494 549.042C581.913 548.604 582.604 548.597 583.036 549.013C583.471 549.433 583.484 550.121 583.067 550.556C582.925 550.703 568.884 565.332 565.46 573C565.279 573.409 564.883 573.65 564.463 573.65Z" fill="black" fill-opacity="0.1"/>
<path d="M572.02 584.484C571.715 584.484 571.412 584.357 571.197 584.106C570.804 583.651 570.85 582.962 571.308 582.566C578.579 576.274 593.551 574.942 594.185 574.887C594.775 574.841 595.314 575.283 595.363 575.881C595.415 576.481 594.969 577.009 594.369 577.061C594.219 577.074 579.466 578.392 572.734 584.217C572.527 584.396 572.274 584.484 572.02 584.484Z" fill="black" fill-opacity="0.1"/>
<path d="M551.636 661.886C551.584 661.886 551.535 661.883 551.483 661.875C550.888 661.793 550.468 661.241 550.554 660.646C553.792 637.143 547.184 618.412 547.117 618.223C546.912 617.657 547.207 617.033 547.774 616.828C548.336 616.626 548.967 616.919 549.169 617.486C549.236 617.677 556.028 636.913 552.712 660.944C552.64 661.49 552.171 661.886 551.636 661.886Z" fill="black" fill-opacity="0.1"/>
<path d="M566.238 646.097C565.731 646.097 565.275 645.743 565.169 645.228C563.384 636.55 554.594 617.183 554.506 616.988C554.258 616.44 554.498 615.793 555.047 615.544C555.593 615.293 556.24 615.536 556.494 616.083C556.859 616.887 565.475 635.872 567.31 644.788C567.431 645.378 567.048 645.955 566.461 646.074C566.383 646.09 566.308 646.097 566.238 646.097Z" fill="black" fill-opacity="0.1"/>
<path d="M532.921 646.582C532.696 646.582 532.468 646.512 532.274 646.369C531.787 646.012 531.686 645.329 532.043 644.845C537.083 638.01 540.196 616.916 540.227 616.704C540.313 616.106 540.869 615.694 541.464 615.782C542.06 615.868 542.474 616.422 542.388 617.02C542.259 617.907 539.163 638.869 533.801 646.139C533.586 646.429 533.255 646.582 532.921 646.582Z" fill="black" fill-opacity="0.1"/>
<path d="M515.241 632.988C514.927 632.988 514.617 632.854 514.402 632.595C514.019 632.132 514.081 631.443 514.547 631.06C521.998 624.882 528.531 611.271 528.595 611.137C528.854 610.593 529.512 610.363 530.047 610.622C530.594 610.88 530.824 611.533 530.565 612.076C530.288 612.653 523.761 626.257 515.937 632.74C515.732 632.908 515.484 632.988 515.241 632.988Z" fill="black" fill-opacity="0.1"/>
<path d="M490.319 627.528C489.798 627.528 489.335 627.152 489.247 626.619C489.146 626.027 489.545 625.462 490.14 625.361C506.552 622.59 523.768 605.314 523.941 605.14C524.361 604.708 525.054 604.708 525.484 605.13C525.914 605.554 525.916 606.243 525.494 606.672C524.772 607.405 507.602 624.626 490.508 627.512C490.443 627.525 490.378 627.528 490.319 627.528Z" fill="black" fill-opacity="0.1"/>
<path d="M497.932 609.258C497.396 609.258 496.928 608.862 496.853 608.316C496.772 607.721 497.189 607.169 497.784 607.086C514.501 604.799 521.629 600.109 521.696 600.062C522.196 599.728 522.877 599.86 523.211 600.355C523.547 600.854 523.418 601.53 522.921 601.866C522.623 602.071 515.379 606.879 498.082 609.248C498.033 609.255 497.984 609.258 497.932 609.258Z" fill="black" fill-opacity="0.1"/>
<path d="M523.895 583.182C523.81 583.182 523.719 583.171 523.629 583.148C522.475 582.858 495.234 575.945 487.48 566.211C487.105 565.74 487.185 565.054 487.653 564.679C488.127 564.304 488.805 564.381 489.188 564.852C496.482 574.012 523.883 580.964 524.159 581.034C524.742 581.181 525.096 581.771 524.954 582.356C524.827 582.853 524.385 583.182 523.895 583.182Z" fill="black" fill-opacity="0.1"/>
<path d="M525.942 577.054C525.8 577.054 525.657 577.025 525.518 576.968C513.459 571.877 503.029 558.859 502.589 558.308C502.214 557.837 502.294 557.151 502.765 556.775C503.239 556.403 503.922 556.48 504.297 556.951C504.401 557.083 514.829 570.086 526.367 574.96C526.921 575.193 527.179 575.835 526.949 576.389C526.773 576.803 526.369 577.054 525.942 577.054Z" fill="black" fill-opacity="0.1"/>
<path d="M514.155 591.2C504.263 591.2 492.262 587.15 491.635 586.935C491.066 586.741 490.763 586.12 490.957 585.55C491.151 584.981 491.772 584.683 492.339 584.87C492.526 584.932 510.852 591.12 520.196 588.271C520.781 588.095 521.381 588.421 521.557 588.998C521.73 589.575 521.407 590.183 520.832 590.359C518.863 590.96 516.57 591.2 514.155 591.2Z" fill="black" fill-opacity="0.1"/>
<path d="M545.742 565.968C545.323 565.968 544.924 565.725 544.743 565.313C538.757 551.656 542.704 521.444 542.872 520.165C542.952 519.57 543.509 519.143 544.099 519.228C544.694 519.309 545.113 519.857 545.036 520.453C544.992 520.761 540.998 551.34 546.739 564.438C546.982 564.99 546.728 565.632 546.177 565.875C546.037 565.94 545.89 565.968 545.742 565.968Z" fill="black" fill-opacity="0.1"/>
<path d="M538.667 567.881C538.323 567.881 537.983 567.718 537.771 567.413C528.938 554.715 527.359 538.363 527.967 537.152C528.236 536.614 528.894 536.396 529.432 536.665C529.893 536.896 530.121 537.413 530.004 537.895C529.906 539.391 531.28 554.262 539.56 566.165C539.904 566.659 539.782 567.34 539.288 567.684C539.102 567.816 538.882 567.881 538.667 567.881Z" fill="black" fill-opacity="0.1"/>
<path d="M552.986 567.941C552.979 567.941 552.971 567.941 552.963 567.941C552.36 567.928 551.884 567.431 551.897 566.828C552.073 557.935 555.065 548.915 560.785 540.014C560.981 539.706 561.121 539.494 561.18 539.38C561.465 538.85 562.136 538.653 562.656 538.933C563.186 539.215 563.388 539.877 563.106 540.408C563.031 540.55 562.86 540.814 562.617 541.195C557.12 549.751 554.247 558.39 554.073 566.872C554.066 567.467 553.577 567.941 552.986 567.941Z" fill="black" fill-opacity="0.1"/>
<path d="M528.142 591.135C529.358 591.311 530.489 590.47 530.665 589.251C530.841 588.035 530 586.904 528.781 586.728C527.565 586.552 526.434 587.393 526.258 588.612C526.082 589.828 526.925 590.959 528.142 591.135Z" fill="black" fill-opacity="0.1"/>
<path d="M532.708 582.18C533.925 582.356 535.056 581.515 535.232 580.296C535.408 579.08 534.566 577.949 533.347 577.773C532.131 577.597 531 578.438 530.824 579.657C530.648 580.873 531.492 582.002 532.708 582.18Z" fill="black" fill-opacity="0.1"/>
<path d="M543.494 576.238C544.711 576.414 545.842 575.573 546.018 574.354C546.194 573.138 545.353 572.007 544.134 571.831C542.917 571.655 541.786 572.496 541.61 573.715C541.434 574.931 542.275 576.062 543.494 576.238Z" fill="black" fill-opacity="0.1"/>
<path d="M555.99 579.365C557.207 579.541 558.338 578.699 558.514 577.48C558.69 576.264 557.849 575.133 556.63 574.957C555.413 574.781 554.282 575.622 554.106 576.841C553.93 578.058 554.771 579.189 555.99 579.365Z" fill="black" fill-opacity="0.1"/>
<path d="M562.402 590.698C563.618 590.874 564.749 590.033 564.925 588.814C565.101 587.595 564.26 586.466 563.041 586.29C561.824 586.114 560.693 586.956 560.517 588.175C560.341 589.391 561.185 590.522 562.402 590.698Z" fill="black" fill-opacity="0.1"/>
<path d="M559.899 603.945C561.115 604.121 562.246 603.279 562.422 602.06C562.598 600.844 561.757 599.713 560.538 599.537C559.321 599.361 558.19 600.202 558.014 601.421C557.838 602.638 558.682 603.766 559.899 603.945Z" fill="black" fill-opacity="0.1"/>
<path d="M548.922 611.717C550.138 611.893 551.27 611.052 551.446 609.833C551.622 608.616 550.778 607.485 549.561 607.309C548.345 607.133 547.214 607.974 547.038 609.193C546.862 610.41 547.706 611.538 548.922 611.717Z" fill="black" fill-opacity="0.1"/>
<path d="M537.344 609.688C538.56 609.864 539.691 609.023 539.867 607.804C540.043 606.587 539.202 605.456 537.983 605.28C536.767 605.104 535.636 605.945 535.46 607.164C535.284 608.381 536.127 609.512 537.344 609.688Z" fill="black" fill-opacity="0.1"/>
<path d="M529.854 601.825C531.07 602.001 532.201 601.159 532.377 599.94C532.553 598.724 531.712 597.593 530.493 597.417C529.277 597.241 528.145 598.082 527.97 599.301C527.794 600.518 528.637 601.649 529.854 601.825Z" fill="black" fill-opacity="0.1"/>
<path d="M536.044 593.84C537.26 594.016 538.391 593.175 538.567 591.956C538.743 590.74 537.902 589.609 536.683 589.433C535.467 589.257 534.336 590.098 534.16 591.317C533.981 592.533 534.825 593.662 536.044 593.84Z" fill="black" fill-opacity="0.1"/>
<path d="M543.543 586.006C544.76 586.182 545.891 585.341 546.067 584.121C546.243 582.905 545.401 581.774 544.182 581.598C542.966 581.422 541.835 582.263 541.659 583.482C541.483 584.699 542.327 585.827 543.543 586.006Z" fill="black" fill-opacity="0.1"/>
<path d="M550.943 587.373C551.091 588.594 552.201 589.461 553.423 589.314C554.644 589.166 555.511 588.056 555.364 586.834C555.216 585.613 554.106 584.743 552.884 584.893C551.663 585.041 550.796 586.151 550.943 587.373Z" fill="black" fill-opacity="0.1"/>
<path d="M550.814 597.275C550.961 598.496 552.072 599.363 553.293 599.216C554.515 599.068 555.382 597.958 555.234 596.736C555.087 595.515 553.976 594.645 552.755 594.795C551.533 594.943 550.664 596.053 550.814 597.275Z" fill="black" fill-opacity="0.1"/>
<path d="M540.625 600.613C540.773 601.835 541.883 602.704 543.105 602.554C544.326 602.404 545.193 601.296 545.046 600.075C544.898 598.853 543.788 597.986 542.566 598.134C541.345 598.284 540.475 599.394 540.625 600.613Z" fill="black" fill-opacity="0.1"/>
<path d="M543.317 592.567C543.464 593.788 544.575 594.655 545.796 594.508C547.018 594.358 547.885 593.25 547.737 592.028C547.59 590.807 546.479 589.937 545.258 590.087C544.036 590.237 543.167 591.348 543.317 592.567Z" fill="black" fill-opacity="0.1"/>
<path d="M669.967 430.341C669.294 430.08 668.549 430.408 668.29 431.076C645.382 489.615 611.953 522.793 600.845 532.695C601.505 533.257 602.097 533.886 602.605 534.59C613.987 524.423 647.654 490.909 670.702 432.018C670.961 431.353 670.632 430.602 669.967 430.341Z" fill="black" fill-opacity="0.1"/>
<path d="M675.455 421.389L675.09 417.838L673.097 420.796C665.001 432.797 653.815 438.985 641.972 445.536C629 452.71 615.588 460.131 603.416 475.768C581.75 503.609 582.416 528.546 582.762 533.233C583.045 533.086 583.35 532.959 583.702 532.874C584.269 532.737 584.797 532.511 585.312 532.255C585.079 526.331 585.586 502.895 605.458 477.358C617.301 462.137 630.48 454.848 643.225 447.801C654.398 441.62 665.001 435.755 673.206 425.074C675.113 447.327 673.402 473.737 651.476 503.068C635.833 523.996 614.576 535.454 604.715 539.95C604.871 540.874 604.933 541.811 604.868 542.716C614.545 538.407 637.083 526.652 653.549 504.619C677.142 473.053 677.865 444.832 675.455 421.389Z" fill="black" fill-opacity="0.1"/>
<path d="M622.689 487.581C622.177 487.094 621.354 487.11 620.862 487.63C602.53 506.94 593.052 525.231 590.85 529.765C591.82 529.594 592.799 529.587 593.774 529.693C596.733 523.838 605.954 507.093 622.738 489.413C623.23 488.893 623.209 488.072 622.689 487.581Z" fill="black" fill-opacity="0.1"/>
<path d="M653.872 483.724C653.251 483.372 652.459 483.587 652.107 484.216C636.48 511.902 614.123 529.02 603.499 536.08C603.851 536.782 604.156 537.525 604.374 538.343C604.394 538.415 604.407 538.495 604.426 538.568C615.081 531.549 638.248 514.032 654.362 485.484C654.714 484.863 654.496 484.074 653.872 483.724Z" fill="black" fill-opacity="0.1"/>
<path d="M544.339 788.721C524.863 735.876 525.225 692.646 526.758 673.584C525.901 673.788 525.026 673.832 524.151 673.786C522.63 693.35 522.43 736.745 541.914 789.616C542.106 790.139 542.602 790.463 543.128 790.463C543.278 790.463 543.428 790.437 543.576 790.383C544.243 790.137 544.588 789.394 544.339 788.721Z" fill="black" fill-opacity="0.1"/>
<path d="M563.178 712.229C562.186 696.953 558.405 684.929 554.173 675.88C553.073 676.111 551.88 675.922 550.889 675.176C555.374 684.178 559.567 696.531 560.594 712.394C561.842 731.642 556.829 745.841 551.979 759.574C547.726 771.614 543.694 783.038 544.649 796.471C528.45 781.1 512.196 760.213 509.116 723.723C507.268 701.809 512.845 682.278 517.276 670.73C516.549 670.018 515.907 669.231 515.436 668.336C510.829 679.928 504.566 700.615 506.536 723.94C509.851 763.205 528.048 784.788 545.412 800.723L548.042 803.138L547.571 799.6C545.658 785.254 549.913 773.198 554.419 760.438C559.357 746.457 564.461 732.005 563.178 712.229Z" fill="black" fill-opacity="0.1"/>
<path d="M537.53 666.594C537.064 667.445 536.352 668.201 535.41 668.853C537.336 677.153 540.369 693.888 539.67 714.858C539.647 715.572 540.206 716.17 540.92 716.193C540.936 716.193 540.951 716.193 540.964 716.193C541.661 716.193 542.235 715.642 542.258 714.943C543.014 692.227 539.443 674.361 537.53 666.594Z" fill="black" fill-opacity="0.1"/>
<path d="M521.602 673.338C520.758 673.072 519.956 672.702 519.197 672.241C516.043 686.551 512.719 711.353 518.628 738.785C518.76 739.391 519.296 739.808 519.894 739.808C519.982 739.808 520.072 739.797 520.166 739.779C520.864 739.629 521.307 738.94 521.159 738.242C515.416 711.578 518.54 687.452 521.602 673.338Z" fill="black" fill-opacity="0.1"/>
<path d="M469.201 610.886C469.092 610.736 469.023 610.573 468.945 610.41C450.352 608.357 402.533 606.186 343.181 627.158C342.508 627.396 342.153 628.136 342.392 628.809C342.58 629.342 343.08 629.671 343.613 629.671C343.758 629.671 343.9 629.647 344.045 629.596C406.2 607.633 455.53 611.259 471.409 613.303C470.601 612.602 469.864 611.799 469.201 610.886Z" fill="black" fill-opacity="0.1"/>
<path d="M472.71 633.268C463.186 639.351 447.144 646.784 424.338 647.956C403.995 648.999 389.097 643.51 374.676 638.199C361.994 633.527 349.99 629.094 335.711 629.961C352.172 613.039 374.461 596.102 413.11 593.364C433.269 591.943 451.425 596.426 463.786 600.8C463.851 599.904 464.18 599.048 464.723 598.385C452.088 593.902 433.531 589.311 412.926 590.784C371.49 593.719 348.486 612.594 331.446 630.673L329 633.268L332.543 632.844C347.72 631.024 360.376 635.691 373.78 640.627C387.21 645.575 401.06 650.676 419.324 650.676C421.001 650.676 422.717 650.632 424.47 650.544C448.048 649.333 464.441 641.755 474.201 635.479C473.484 634.927 472.951 634.125 472.71 633.268Z" fill="black" fill-opacity="0.1"/>
<path d="M475.385 620.879C470.208 622.253 449.526 627.15 422.029 625.856C421.323 625.835 420.709 626.376 420.678 627.088C420.642 627.802 421.196 628.408 421.91 628.441C425.086 628.589 428.171 628.656 431.155 628.656C452.35 628.656 468.368 625.289 474.577 623.754C474.497 622.729 474.763 621.681 475.385 620.879Z" fill="black" fill-opacity="0.1"/>
<path d="M464.403 604.226C449.048 600.908 424.372 597.834 397.108 603.326C396.407 603.468 395.954 604.149 396.094 604.85C396.236 605.551 396.93 606.004 397.618 605.865C425.645 600.222 450.901 603.768 465.783 607.174C464.835 606.343 464.419 605.285 464.403 604.226Z" fill="black" fill-opacity="0.1"/>
<path d="M402.317 752.417C402.154 752.417 401.994 752.386 401.833 752.324C401.171 752.057 400.847 751.304 401.116 750.642C431.307 675.572 477.651 640.016 478.117 639.667C478.681 639.239 479.494 639.348 479.929 639.92C480.358 640.492 482.307 640 481.735 640.43C481.277 640.777 433.422 677.249 403.518 751.61C403.316 752.112 402.83 752.417 402.317 752.417Z" fill="black" fill-opacity="0.1"/>
<path d="M493.507 654.699C492.754 653.795 492.309 652.905 491.969 651.981C491.11 662.502 487.099 682.395 470.361 703.486C457.71 719.431 443.734 726.991 430.218 734.303C418.326 740.734 407.049 746.837 398.283 758.101C396.464 734.562 398.482 706.643 421.97 675.828C440.791 651.137 467.001 639.183 475.02 635.955C474.142 635.596 473.423 634.858 472.99 633.993C463.678 637.881 438.335 650.092 419.915 674.26C394.732 707.295 393.694 737.036 396 761.774L396.332 765.327L398.356 762.387C407.021 749.796 418.888 743.377 431.45 736.58C445.196 729.145 459.408 721.455 472.387 705.093C488.139 685.239 492.94 666.703 494.301 655.343C494.012 655.172 493.735 654.97 493.507 654.699Z" fill="black" fill-opacity="0.1"/>
<path d="M455.002 687.827C454.678 687.827 454.352 687.705 454.101 687.462C453.589 686.965 453.573 686.147 454.07 685.632C476.165 662.786 486.078 641.317 486.176 641.105C486.471 640.456 487.24 640.168 487.89 640.463C488.542 640.761 488.827 641.527 488.532 642.177C488.433 642.394 478.334 664.269 455.929 687.431C455.68 687.697 455.341 687.827 455.002 687.827Z" fill="black" fill-opacity="0.1"/>
<path d="M475.733 636.664C467.368 641.626 438.451 660.48 418.871 694.419C418.512 695.038 418.724 695.83 419.345 696.187C419.55 696.306 419.772 696.36 419.992 696.36C420.44 696.36 420.875 696.127 421.113 695.713C440.982 661.275 470.679 642.583 477.775 638.46C476.96 638.038 476.254 637.441 475.733 636.664Z" fill="black" fill-opacity="0.1"/>
<path d="M413.688 173.734C464.624 173.734 531.002 168.069 602.554 147.183C690.64 121.467 755.89 127.112 795.118 136.376C837.598 146.407 859.552 162.725 859.768 162.887C860.652 163.552 861.909 163.378 862.574 162.496C863.241 161.614 863.067 160.358 862.185 159.691C861.279 159.005 839.509 142.786 796.3 132.536C756.561 123.11 690.498 117.333 601.43 143.333C441.067 190.148 285.072 164.516 240.882 141.113C239.909 140.592 238.692 140.969 238.173 141.947C237.654 142.924 238.029 144.137 239.007 144.656C258.829 155.154 306.671 168.798 376.268 172.698C387.501 173.325 400.042 173.734 413.688 173.734Z" fill="black" fill-opacity="0.1"/>
<path d="M790.859 178.248C791.116 178.248 791.374 178.15 791.571 177.952C813.375 155.973 846.038 154.248 846.364 154.232C846.917 154.206 847.346 153.739 847.32 153.186C847.294 152.633 846.793 152.196 846.274 152.23C845.94 152.246 812.497 154.014 790.148 176.541C789.759 176.934 789.761 177.569 790.154 177.958C790.35 178.152 790.605 178.248 790.859 178.248Z" fill="black" fill-opacity="0.1"/>
<path d="M782.064 188.326L784.338 186.979C789.424 183.967 795.191 183.507 801.297 183.016C807.792 182.497 814.507 181.96 821.328 178.439C834.706 171.535 839.116 155.154 839.298 154.46L839.467 153.815L838.938 153.41C838.463 153.05 827.117 144.563 811.146 147.802C795.292 151.02 788.961 166.919 782.874 185.809L782.064 188.326ZM837.164 154.615C836.196 157.721 831.519 170.926 820.408 176.659C813.946 179.996 807.435 180.515 801.139 181.02C795.64 181.461 790.408 181.879 785.539 184.096C791.21 166.85 797.386 152.639 811.545 149.765C824.712 147.09 834.748 153.01 837.164 154.615Z" fill="black" fill-opacity="0.1"/>
<path d="M795.152 177.886C795.156 177.886 795.16 177.886 795.166 177.886C795.393 177.884 800.895 177.756 815.03 172.896C829.324 167.981 837.981 155.441 838.341 154.91C838.652 154.451 838.534 153.83 838.077 153.519C837.62 153.206 836.997 153.325 836.686 153.783C836.602 153.908 828.027 166.31 814.379 171.003C800.637 175.726 795.19 175.882 795.136 175.882C794.585 175.892 794.142 176.349 794.152 176.9C794.162 177.449 794.607 177.886 795.152 177.886Z" fill="black" fill-opacity="0.1"/>
<path d="M802.163 161.65C802.411 161.65 802.66 161.558 802.854 161.374C815.24 149.575 832.772 152.228 832.946 152.256C833.487 152.346 834.006 151.974 834.094 151.427C834.183 150.882 833.812 150.367 833.265 150.278C832.509 150.156 814.593 147.423 801.472 159.923C801.071 160.304 801.055 160.939 801.437 161.338C801.634 161.546 801.898 161.65 802.163 161.65Z" fill="black" fill-opacity="0.1"/>
<path d="M830.195 144.812C830.285 144.812 830.379 144.8 830.469 144.774C831.002 144.621 831.311 144.068 831.158 143.535C831.066 143.213 821.66 111.071 794.598 94.5007C794.125 94.2101 793.51 94.3604 793.219 94.8313C792.929 95.3042 793.079 95.9194 793.55 96.21C819.953 112.377 829.14 143.77 829.231 144.084C829.357 144.525 829.758 144.812 830.195 144.812Z" fill="black" fill-opacity="0.1"/>
<path d="M828.052 137.275L828.325 136.666C828.569 136.121 834.222 123.13 827.395 108.33C820.618 93.6392 803.689 91.1344 783.907 89.5513L781.272 89.3409L783.106 91.2446C787.203 95.5008 788.979 101.009 790.858 106.841C792.856 113.041 794.924 119.453 799.918 125.282C809.713 136.716 826.672 137.243 827.387 137.259L828.052 137.275ZM786.185 91.7516C804.27 93.3046 819.522 96.0499 825.575 109.169C831.206 121.371 827.752 132.498 826.744 135.217C823.497 134.991 809.571 133.472 801.439 123.98C796.708 118.457 794.704 112.239 792.766 106.228C791.073 100.975 789.462 95.9798 786.185 91.7516Z" fill="black" fill-opacity="0.1"/>
<path d="M827.084 136.496C827.487 136.496 827.868 136.251 828.02 135.852C828.219 135.335 827.96 134.756 827.443 134.56C827.303 134.506 813.262 129.013 805.559 116.81C797.802 104.522 796.399 99.2577 796.385 99.2056C796.247 98.6706 795.708 98.3399 795.169 98.4822C794.634 98.6184 794.309 99.1595 794.443 99.6945C794.497 99.915 795.888 105.241 803.866 117.88C811.933 130.662 826.128 136.203 826.73 136.431C826.846 136.475 826.966 136.496 827.084 136.496Z" fill="black" fill-opacity="0.1"/>
<path d="M829.071 131.5C829.095 131.5 829.119 131.498 829.143 131.496C829.694 131.456 830.111 130.977 830.071 130.426C830.016 129.663 828.558 111.596 813.374 101.701C812.913 101.4 812.288 101.528 811.988 101.993C811.685 102.456 811.817 103.077 812.28 103.38C826.638 112.738 828.059 130.392 828.071 130.57C828.109 131.098 828.55 131.5 829.071 131.5Z" fill="black" fill-opacity="0.1"/>
<path d="M719.24 156.436C719.497 156.436 719.755 156.338 719.951 156.139C741.756 134.161 774.419 132.434 774.745 132.42C775.298 132.394 775.727 131.927 775.701 131.374C775.675 130.821 775.154 130.382 774.655 130.418C774.32 130.434 740.878 132.201 718.529 154.729C718.14 155.121 718.142 155.757 718.535 156.145C718.729 156.338 718.984 156.436 719.24 156.436Z" fill="black" fill-opacity="0.1"/>
<path d="M710.443 166.51L712.717 165.163C717.803 162.153 723.57 161.692 729.676 161.202C736.171 160.683 742.886 160.143 749.707 156.625C763.085 149.721 767.495 133.338 767.675 132.644L767.844 131.999L767.315 131.594C766.84 131.232 755.498 122.751 739.523 125.986C723.669 129.206 717.338 145.104 711.251 163.993L710.443 166.51ZM765.543 132.803C764.575 135.909 759.898 149.114 748.789 154.847C742.327 158.182 735.814 158.703 729.518 159.208C724.019 159.649 718.787 160.067 713.918 162.284C719.589 145.04 725.765 130.829 739.924 127.953C753.093 125.278 763.127 131.196 765.543 132.803Z" fill="black" fill-opacity="0.1"/>
<path d="M723.532 156.071C723.536 156.071 723.54 156.071 723.546 156.071C723.772 156.069 729.275 155.941 743.41 151.082C757.704 146.168 766.361 133.626 766.721 133.095C767.032 132.636 766.914 132.015 766.457 131.704C766 131.392 765.375 131.512 765.066 131.969C764.982 132.093 756.407 144.497 742.759 149.188C729.017 153.911 723.57 154.067 723.516 154.067C722.965 154.077 722.522 154.532 722.532 155.085C722.54 155.634 722.985 156.071 723.532 156.071Z" fill="black" fill-opacity="0.1"/>
<path d="M730.542 139.836C730.79 139.836 731.039 139.744 731.233 139.56C743.621 127.761 761.151 130.412 761.325 130.442C761.868 130.53 762.385 130.16 762.473 129.613C762.562 129.066 762.191 128.553 761.644 128.464C760.888 128.344 742.972 125.609 729.85 138.109C729.45 138.492 729.434 139.125 729.816 139.526C730.015 139.732 730.277 139.836 730.542 139.836Z" fill="black" fill-opacity="0.1"/>
<path d="M749.266 127.507C749.466 127.507 749.667 127.447 749.843 127.324C750.296 127.006 750.404 126.38 750.086 125.928C749.893 125.653 730.406 98.4185 699.392 91.7076C698.853 91.5934 698.316 91.934 698.2 92.4751C698.083 93.0161 698.426 93.5491 698.967 93.6674C729.201 100.21 748.26 126.815 748.448 127.084C748.641 127.358 748.951 127.507 749.266 127.507Z" fill="black" fill-opacity="0.1"/>
<path d="M731.333 123.132C738.483 123.132 744.058 121.375 744.453 121.247L745.086 121.042L745.142 120.377C745.192 119.782 746.242 105.653 734.914 93.9361C723.671 82.3076 706.866 85.5278 687.665 90.5616L685.108 91.2328L687.467 92.4251C692.741 95.0903 696.234 99.7032 699.933 104.587C703.866 109.781 707.934 115.151 714.571 119.006C720.062 122.197 726.117 123.132 731.333 123.132ZM743.172 119.531C740.028 120.389 726.384 123.549 715.577 117.275C709.287 113.622 705.343 108.414 701.53 103.378C698.199 98.9818 695.031 94.7957 690.543 91.8881C708.129 87.3874 723.43 84.9447 733.473 95.3307C742.791 104.965 743.22 116.628 743.172 119.531Z" fill="black" fill-opacity="0.1"/>
<path d="M743.587 120.684C744.126 120.684 744.57 120.255 744.586 119.712C744.603 119.159 744.168 118.698 743.615 118.68C743.464 118.676 728.397 118.125 717.097 109.147C705.722 100.108 702.658 95.6012 702.63 95.5571C702.325 95.0962 701.702 94.97 701.243 95.2745C700.782 95.5791 700.654 96.1983 700.956 96.6592C701.083 96.8496 704.15 101.416 715.851 110.716C727.686 120.118 742.915 120.666 743.557 120.684C743.567 120.684 743.579 120.684 743.587 120.684Z" fill="black" fill-opacity="0.1"/>
<path d="M743.812 115.311C743.944 115.311 744.078 115.285 744.209 115.227C744.716 115.009 744.95 114.42 744.73 113.911C744.427 113.207 737.089 96.6353 719.489 92.3049C718.948 92.1707 718.409 92.5013 718.277 93.0383C718.144 93.5754 718.473 94.1184 719.01 94.2507C735.622 98.3406 742.82 114.544 742.89 114.706C743.056 115.085 743.425 115.311 743.812 115.311Z" fill="black" fill-opacity="0.1"/>
<path d="M631.771 169.125C632.117 169.125 632.454 168.945 632.64 168.622C648.066 141.808 679.208 131.743 679.521 131.645C680.05 131.478 680.342 130.915 680.176 130.388C680.01 129.859 679.445 129.571 678.92 129.733C678.599 129.833 646.73 140.117 630.903 167.622C630.626 168.103 630.793 168.714 631.272 168.991C631.43 169.083 631.602 169.125 631.771 169.125Z" fill="black" fill-opacity="0.1"/>
<path d="M626.109 181.084L627.963 179.2C632.105 174.988 637.563 173.06 643.338 171.022C649.482 168.854 655.834 166.612 661.525 161.462C672.687 151.358 672.749 134.394 672.747 133.676L672.745 133.011L672.13 132.757C671.579 132.526 658.439 127.23 643.829 134.462C629.329 141.642 627.289 158.63 626.249 178.449L626.109 181.084ZM670.723 134.374C670.585 137.624 669.449 151.587 660.181 159.977C654.788 164.858 648.629 167.033 642.671 169.135C637.471 170.97 632.519 172.718 628.383 176.108C629.442 157.987 631.766 142.668 644.715 136.257C656.76 130.294 667.98 133.44 670.723 134.374Z" fill="black" fill-opacity="0.1"/>
<path d="M635.829 167.674C635.919 167.674 636.009 167.662 636.1 167.636C636.318 167.576 641.604 166.041 654.018 157.721C666.576 149.307 671.724 134.965 671.937 134.358C672.121 133.837 671.847 133.266 671.324 133.081C670.797 132.903 670.229 133.171 670.045 133.694C669.995 133.837 664.889 148.022 652.9 156.058C640.829 164.147 635.605 165.696 635.553 165.71C635.022 165.863 634.713 166.416 634.863 166.947C634.991 167.385 635.392 167.674 635.829 167.674Z" fill="black" fill-opacity="0.1"/>
<path d="M638.439 150.182C638.776 150.182 639.107 150.012 639.295 149.703C648.24 135.121 665.866 133.192 666.043 133.174C666.592 133.117 666.995 132.628 666.94 132.077C666.884 131.528 666.385 131.134 665.844 131.18C665.083 131.256 647.064 133.208 637.586 148.655C637.295 149.126 637.444 149.743 637.916 150.034C638.081 150.134 638.261 150.182 638.439 150.182Z" fill="black" fill-opacity="0.1"/>
<path d="M653.376 133.462C653.663 133.462 653.947 133.34 654.146 133.104C654.5 132.681 654.444 132.047 654.021 131.691C653.765 131.476 627.901 110.143 596.246 111.614C595.693 111.64 595.266 112.109 595.29 112.66C595.314 113.213 595.773 113.668 596.336 113.616C627.29 112.153 652.48 133.017 652.733 133.228C652.921 133.386 653.15 133.462 653.376 133.462Z" fill="black" fill-opacity="0.1"/>
<path d="M625.609 135.114C637.125 135.114 646.88 128.934 647.375 128.613L647.934 128.252L647.817 127.597C647.713 127.008 645.106 113.083 631.151 104.663C617.302 96.3046 601.883 103.727 584.617 113.518L582.317 114.822L584.904 115.369C590.685 116.594 595.244 120.157 600.071 123.928C605.205 127.94 610.513 132.088 617.918 134.112C620.515 134.821 623.104 135.114 625.609 135.114ZM645.697 127.284C642.88 128.918 630.51 135.474 618.447 132.178C611.431 130.26 606.283 126.238 601.306 122.349C596.959 118.954 592.823 115.72 587.739 114.059C603.582 105.196 617.747 98.9117 630.117 106.378C641.593 113.303 645 124.467 645.697 127.284Z" fill="black" fill-opacity="0.1"/>
<path d="M635.574 129.368C641.669 129.368 646.034 128.374 646.367 128.296C646.906 128.17 647.24 127.631 647.114 127.092C646.988 126.553 646.451 126.216 645.91 126.344C645.761 126.38 631.059 129.711 617.834 123.93C604.52 118.11 600.404 114.54 600.364 114.503C599.951 114.137 599.32 114.173 598.951 114.588C598.584 115 598.62 115.632 599.031 116C599.202 116.153 603.34 119.782 617.032 125.767C623.512 128.601 630.213 129.368 635.574 129.368Z" fill="black" fill-opacity="0.1"/>
<path d="M644.978 123.074C645.194 123.074 645.412 123.004 645.597 122.86C646.032 122.517 646.106 121.888 645.763 121.453C645.288 120.85 633.936 106.72 615.827 107.041C615.274 107.051 614.833 107.508 614.844 108.061C614.854 108.614 615.32 108.981 615.863 109.045C616.052 109.041 616.24 109.041 616.427 109.041C633.213 109.041 644.08 122.557 644.19 122.693C644.387 122.944 644.681 123.074 644.978 123.074Z" fill="black" fill-opacity="0.1"/>
<path d="M549.721 202.96C550.201 202.96 550.626 202.614 550.708 202.125C555.838 171.594 581.524 151.341 581.78 151.14C582.217 150.802 582.297 150.172 581.957 149.734C581.618 149.297 580.989 149.219 580.55 149.557C580.285 149.764 553.989 170.5 548.731 201.792C548.638 202.337 549.007 202.854 549.552 202.946C549.61 202.958 549.666 202.96 549.721 202.96Z" fill="black" fill-opacity="0.1"/>
<path d="M548.924 216.082L550.006 213.669C552.425 208.279 556.869 204.573 561.574 200.652C566.578 196.48 571.754 192.167 575.297 185.354C582.242 171.999 576.391 156.072 576.141 155.401L575.906 154.775L575.239 154.751C574.642 154.735 560.476 154.34 549.305 166.201C538.211 177.974 542.213 194.612 548.137 213.557L548.924 216.082ZM574.485 156.761C575.489 159.859 579.285 173.341 573.518 184.433C570.163 190.887 565.143 195.069 560.292 199.113C556.056 202.646 552.022 206.006 549.325 210.623C544.009 193.266 540.854 178.094 550.762 167.578C559.953 157.821 571.582 156.847 574.485 156.761Z" fill="black" fill-opacity="0.1"/>
<path d="M553.019 200.189C553.223 200.189 553.43 200.127 553.606 199.997C553.79 199.864 558.211 196.584 566.952 184.461C575.793 172.203 575.628 156.966 575.616 156.322C575.606 155.769 575.2 155.347 574.596 155.339C574.043 155.349 573.602 155.803 573.612 156.358C573.614 156.509 573.767 171.586 565.324 183.288C556.826 195.075 552.468 198.347 552.424 198.378C551.979 198.704 551.881 199.331 552.207 199.776C552.406 200.045 552.71 200.189 553.019 200.189Z" fill="black" fill-opacity="0.1"/>
<path d="M549.378 182.882C549.847 182.882 550.266 182.551 550.36 182.074C553.674 165.26 569.519 157.345 569.679 157.266C570.178 157.024 570.383 156.425 570.14 155.928C569.898 155.429 569.295 155.226 568.8 155.467C568.11 155.804 551.899 163.907 548.392 181.687C548.286 182.229 548.639 182.758 549.182 182.864C549.248 182.876 549.312 182.882 549.378 182.882Z" fill="black" fill-opacity="0.1"/>
<path d="M562.237 156.618C562.524 156.618 562.808 156.496 563.007 156.26C563.362 155.837 563.305 155.204 562.883 154.847C562.626 154.631 536.82 133.299 505.105 134.77C504.554 134.796 504.125 135.265 504.151 135.816C504.175 136.369 504.642 136.818 505.199 136.772C536.091 135.329 561.342 156.174 561.594 156.384C561.783 156.542 562.011 156.618 562.237 156.618Z" fill="black" fill-opacity="0.1"/>
<path d="M534.47 158.27C545.988 158.27 555.743 152.09 556.238 151.771L556.799 151.41L556.683 150.755C556.578 150.166 553.971 136.241 540.016 127.819C526.168 119.465 510.75 126.883 493.481 136.674L491.182 137.978L493.769 138.528C499.55 139.752 504.109 143.315 508.935 147.086C514.07 151.098 519.377 155.246 526.781 157.272C529.376 157.977 531.965 158.27 534.47 158.27ZM554.563 150.44C551.747 152.074 539.367 158.632 527.31 155.334C520.294 153.416 515.146 149.394 510.169 145.505C505.822 142.108 501.686 138.876 496.601 137.215C512.445 128.354 526.611 122.072 538.978 129.534C550.487 136.476 553.871 147.625 554.563 150.44Z" fill="black" fill-opacity="0.1"/>
<path d="M544.437 152.525C550.533 152.525 554.898 151.531 555.23 151.452C555.767 151.326 556.104 150.787 555.976 150.248C555.849 149.711 555.312 149.378 554.771 149.501C554.623 149.535 539.917 152.867 526.695 147.086C513.381 141.267 509.266 137.696 509.223 137.66C508.809 137.291 508.175 137.331 507.811 137.744C507.442 138.157 507.478 138.788 507.891 139.155C508.059 139.307 512.197 142.936 525.892 148.922C532.376 151.757 539.077 152.525 544.437 152.525Z" fill="black" fill-opacity="0.1"/>
<path d="M553.842 146.231C554.058 146.231 554.277 146.16 554.461 146.016C554.896 145.673 554.97 145.044 554.627 144.607C554.161 144.012 543.067 130.19 525.309 130.19C525.102 130.19 524.898 130.192 524.692 130.196C524.139 130.206 523.698 130.663 523.708 131.216C523.718 131.769 524.203 132.254 524.728 132.199C541.941 131.875 552.944 145.708 553.054 145.848C553.253 146.1 553.545 146.231 553.842 146.231Z" fill="black" fill-opacity="0.1"/>
<path d="M434.716 213.696C435.105 213.696 435.478 213.468 435.64 213.083C447.685 184.59 477.367 170.806 477.665 170.669C478.168 170.441 478.391 169.846 478.162 169.343C477.932 168.84 477.337 168.615 476.836 168.846C476.531 168.984 446.148 183.075 433.795 212.306C433.58 212.815 433.819 213.402 434.33 213.618C434.454 213.67 434.584 213.696 434.716 213.696Z" fill="black" fill-opacity="0.1"/>
<path d="M430.674 226.247L432.285 224.151C435.884 219.465 441.064 216.891 446.548 214.163C452.384 211.264 458.417 208.264 463.437 202.457C473.286 191.069 471.278 174.222 471.188 173.511L471.104 172.85L470.463 172.671C469.89 172.511 456.199 168.852 442.583 177.809C429.067 186.702 429.109 203.813 430.492 223.609L430.674 226.247ZM469.264 174.451C469.525 177.695 470.1 191.692 461.922 201.146C457.165 206.649 451.314 209.556 445.657 212.368C440.719 214.825 436.018 217.161 432.327 221.028C431.171 202.914 431.612 187.424 443.683 179.484C454.911 172.098 466.429 173.857 469.264 174.451Z" fill="black" fill-opacity="0.1"/>
<path d="M438.569 211.76C438.697 211.76 438.827 211.734 438.951 211.684C439.16 211.596 444.222 209.43 455.529 199.657C466.965 189.774 470.332 174.913 470.468 174.286C470.588 173.745 470.246 173.212 469.705 173.094C469.158 172.978 468.631 173.318 468.51 173.857C468.476 174.006 465.138 188.708 454.217 198.144C443.224 207.643 438.226 209.815 438.176 209.837C437.667 210.051 437.426 210.638 437.641 211.147C437.805 211.53 438.176 211.76 438.569 211.76Z" fill="black" fill-opacity="0.1"/>
<path d="M439.026 194.083C439.405 194.083 439.77 193.866 439.938 193.498C447.042 177.934 464.299 173.87 464.474 173.832C465.013 173.709 465.351 173.172 465.229 172.633C465.109 172.094 464.578 171.756 464.033 171.876C463.285 172.042 445.639 176.176 438.113 192.664C437.884 193.169 438.105 193.762 438.608 193.992C438.744 194.053 438.888 194.083 439.026 194.083Z" fill="black" fill-opacity="0.1"/>
<path d="M459.182 168.997C459.348 168.997 459.517 168.954 459.673 168.868C460.154 168.598 460.326 167.987 460.056 167.504C459.891 167.211 443.277 138.133 413.107 128.3C412.57 128.132 412.015 128.418 411.843 128.943C411.672 129.468 411.959 130.033 412.484 130.206C441.897 139.792 458.148 168.199 458.308 168.486C458.493 168.812 458.831 168.997 459.182 168.997Z" fill="black" fill-opacity="0.1"/>
<path d="M446.389 163.051C451.18 163.051 454.615 162.339 454.928 162.273L455.579 162.135L455.701 161.48C455.813 160.893 458.296 146.944 448.217 134.135C438.211 121.42 421.166 122.917 401.559 125.969L398.946 126.376L401.172 127.803C406.146 130.991 409.149 135.936 412.331 141.168C415.718 146.735 419.217 152.492 425.427 157.003C432.212 161.929 440.37 163.051 446.389 163.051ZM453.828 160.438C450.615 160.973 436.72 162.73 426.607 155.382C420.72 151.108 417.327 145.525 414.045 140.128C411.179 135.415 408.454 130.931 404.286 127.578C422.239 124.889 437.708 124.017 446.644 135.373C454.934 145.908 454.172 157.554 453.828 160.438Z" fill="black" fill-opacity="0.1"/>
<path d="M454.228 161.63C454.723 161.63 455.152 161.264 455.218 160.759C455.293 160.212 454.906 159.707 454.357 159.634C454.208 159.614 439.274 157.532 428.946 147.451C418.55 137.301 415.961 132.506 415.935 132.46C415.68 131.971 415.071 131.783 414.584 132.039C414.095 132.296 413.905 132.899 414.159 133.388C414.265 133.59 416.854 138.446 427.545 148.886C438.362 159.446 453.457 161.536 454.094 161.62C454.14 161.628 454.184 161.63 454.228 161.63Z" fill="black" fill-opacity="0.1"/>
<path d="M454.996 156.31C455.097 156.31 455.197 156.296 455.297 156.264C455.826 156.097 456.117 155.534 455.95 155.007C455.72 154.276 450.105 137.043 433.04 130.945C432.517 130.759 431.946 131.031 431.76 131.55C431.573 132.071 431.844 132.644 432.367 132.831C448.504 138.598 453.984 155.44 454.039 155.61C454.177 156.037 454.57 156.31 454.996 156.31Z" fill="black" fill-opacity="0.1"/>
<path d="M327.82 196.441C328.076 196.441 328.333 196.343 328.529 196.149C350.383 174.255 383.068 172.609 383.397 172.597C383.948 172.573 384.377 172.106 384.355 171.553C384.333 171.002 383.944 170.557 383.311 170.596C382.976 170.61 349.529 172.273 327.112 194.732C326.721 195.123 326.721 195.76 327.112 196.149C327.307 196.345 327.563 196.441 327.82 196.441Z" fill="black" fill-opacity="0.1"/>
<path d="M318.991 206.491L321.269 205.151C326.363 202.157 332.132 201.712 338.242 201.243C344.737 200.742 351.454 200.225 358.285 196.726C371.687 189.863 376.145 173.494 376.33 172.802L376.5 172.157L375.971 171.75C375.498 171.385 364.178 162.857 348.199 166.057C332.333 169.227 325.954 185.106 319.811 203.976L318.991 206.491ZM374.194 172.95C373.218 176.054 368.499 189.244 357.371 194.943C350.899 198.257 344.384 198.76 338.086 199.245C332.587 199.668 327.351 200.071 322.478 202.273C328.199 185.046 334.419 170.854 348.588 168.023C361.766 165.392 371.783 171.335 374.194 172.95Z" fill="black" fill-opacity="0.1"/>
<path d="M332.114 196.093C332.118 196.093 332.125 196.093 332.125 196.093C332.353 196.091 337.854 195.979 352.005 191.166C366.314 186.294 375.007 173.78 375.37 173.249C375.683 172.792 375.568 172.169 375.109 171.856C374.655 171.546 374.029 171.662 373.719 172.117C373.633 172.241 365.022 184.617 351.36 189.268C337.603 193.949 332.155 194.089 332.102 194.089C331.551 194.099 331.109 194.552 331.117 195.105C331.123 195.652 331.565 196.093 332.114 196.093Z" fill="black" fill-opacity="0.1"/>
<path d="M339.173 179.878C339.42 179.878 339.668 179.788 339.863 179.603C352.287 167.841 369.804 170.548 369.983 170.578C370.542 170.674 371.045 170.297 371.133 169.752C371.223 169.205 370.852 168.692 370.307 168.602C369.554 168.476 351.641 165.69 338.484 178.148C338.083 178.529 338.065 179.164 338.444 179.565C338.642 179.772 338.907 179.878 339.173 179.878Z" fill="black" fill-opacity="0.1"/>
<path d="M249.068 148.056C249.487 148.056 249.875 147.794 250.018 147.375C250.194 146.85 249.913 146.283 249.39 146.106C249.08 146.002 218.152 135.304 203.273 108.183C203.005 107.696 202.394 107.522 201.913 107.786C201.428 108.053 201.25 108.662 201.516 109.147C216.777 136.969 248.431 147.9 248.747 148.006C248.855 148.04 248.964 148.056 249.068 148.056Z" fill="black" fill-opacity="0.1"/>
<path d="M230.631 146.691C237.176 146.691 241.702 144.972 242.023 144.846L242.646 144.603L242.662 143.936C242.68 143.219 242.963 126.256 232.01 115.928C226.427 110.662 220.119 108.289 214.021 105.997C208.288 103.841 202.87 101.805 198.814 97.5086L197 95.5848L197.084 98.2279C197.722 118.064 199.417 135.091 213.767 142.561C219.896 145.758 225.812 146.691 230.631 146.691ZM240.652 143.197C237.881 144.07 226.577 146.978 214.688 140.786C201.874 134.113 199.862 118.75 199.17 100.611C203.236 104.083 208.152 105.933 213.314 107.873C219.227 110.095 225.343 112.393 230.633 117.385C239.727 125.961 240.58 139.94 240.652 143.197Z" fill="black" fill-opacity="0.1"/>
<path d="M240.912 144.554C241.016 144.554 241.121 144.538 241.225 144.504C241.75 144.329 242.036 143.764 241.862 143.239C241.662 142.628 236.806 128.186 224.424 119.517C212.181 110.947 206.927 109.304 206.708 109.24C206.181 109.081 205.622 109.376 205.462 109.907C205.301 110.436 205.598 110.993 206.127 111.157C206.177 111.173 211.369 112.826 223.274 121.16C235.117 129.45 239.914 143.724 239.96 143.866C240.099 144.287 240.491 144.554 240.912 144.554Z" fill="black" fill-opacity="0.1"/>
<path d="M235.828 146.299C236.327 146.299 236.76 145.924 236.82 145.417C236.886 144.868 236.495 144.369 235.944 144.303C235.768 144.281 218.186 141.994 209.539 127.232C209.259 126.753 208.649 126.596 208.167 126.873C207.69 127.154 207.529 127.767 207.808 128.246C216.968 143.884 234.942 146.202 235.704 146.293C235.748 146.297 235.786 146.299 235.828 146.299Z" fill="black" fill-opacity="0.1"/>
<path d="M377.287 170.273C377.461 170.273 377.639 170.229 377.8 170.133C378.275 169.85 378.431 169.235 378.148 168.76C377.978 168.472 360.659 139.81 330.258 130.717C329.719 130.557 329.17 130.861 329.01 131.39C328.851 131.919 329.152 132.478 329.683 132.637C359.346 141.508 376.259 169.502 376.427 169.784C376.613 170.099 376.946 170.273 377.287 170.273Z" fill="black" fill-opacity="0.1"/>
<path d="M363.201 164.656C368.599 164.656 372.561 163.738 372.894 163.656L373.543 163.5L373.649 162.843C373.747 162.253 375.888 148.246 365.497 135.688C355.188 123.224 338.183 125.132 318.653 128.667L316.05 129.138L318.31 130.51C323.362 133.576 326.488 138.445 329.799 143.601C333.317 149.084 336.956 154.753 343.275 159.109C349.735 163.564 357.324 164.656 363.201 164.656ZM371.752 161.847C368.557 162.456 354.707 164.554 344.415 157.46C338.427 153.332 334.898 147.836 331.486 142.519C328.508 137.878 325.671 133.46 321.422 130.21C339.297 127.086 354.747 125.829 363.954 136.967C372.521 147.321 372.028 158.961 371.752 161.847Z" fill="black" fill-opacity="0.1"/>
<path d="M372.155 163.031C372.66 163.031 373.095 162.65 373.149 162.135C373.207 161.586 372.81 161.091 372.261 161.033C372.111 161.017 357.132 159.302 346.561 149.475C335.919 139.582 333.214 134.853 333.188 134.806C332.917 134.324 332.304 134.151 331.825 134.418C331.342 134.686 331.166 135.293 331.434 135.776C331.544 135.975 334.25 140.768 345.195 150.942C356.266 161.233 371.407 162.957 372.047 163.025C372.083 163.029 372.119 163.031 372.155 163.031Z" fill="black" fill-opacity="0.1"/>
<path d="M372.792 157.693C372.9 157.693 373.008 157.675 373.117 157.639C373.642 157.458 373.918 156.889 373.74 156.366C373.491 155.641 367.458 138.552 350.247 132.871C349.721 132.695 349.154 132.983 348.982 133.508C348.808 134.033 349.094 134.6 349.619 134.773C365.863 140.135 371.784 156.847 371.844 157.016C371.988 157.43 372.375 157.693 372.792 157.693Z" fill="black" fill-opacity="0.1"/>
<path d="M251.49 186.092C251.73 186.092 251.971 185.995 252.147 185.805C271.05 165.492 300.3 162.991 300.595 162.969C301.087 162.929 301.458 162.498 301.42 162.003C301.38 161.51 300.989 161.133 300.454 161.176C300.154 161.2 270.22 163.743 250.831 184.581C250.492 184.945 250.512 185.513 250.875 185.851C251.051 186.011 251.271 186.092 251.49 186.092Z" fill="black" fill-opacity="0.1"/>
<path d="M243.921 195.375L245.921 194.103C250.394 191.257 255.554 190.678 261.012 190.065C266.819 189.412 272.827 188.739 278.842 185.386C290.639 178.813 294.122 163.999 294.264 163.372L294.396 162.789L293.91 162.442C293.475 162.129 283.069 154.839 268.833 158.208C254.712 161.548 249.494 175.984 244.576 193.095L243.921 195.375ZM292.355 163.574C291.577 166.387 287.762 178.361 277.965 183.819C272.266 186.995 266.443 187.649 260.812 188.282C255.896 188.833 251.215 189.36 246.913 191.486C251.504 175.864 256.636 162.945 269.248 159.961C280.981 157.182 290.144 162.203 292.355 163.574Z" fill="black" fill-opacity="0.1"/>
<path d="M255.326 185.642C255.34 185.642 255.354 185.642 255.368 185.642C255.573 185.632 260.502 185.358 273.032 180.597C285.707 175.783 293.111 164.291 293.42 163.804C293.686 163.385 293.56 162.83 293.141 162.564C292.73 162.299 292.169 162.417 291.901 162.84C291.829 162.954 284.499 174.32 272.395 178.917C260.21 183.544 255.33 183.843 255.284 183.845C254.789 183.871 254.406 184.292 254.431 184.787C254.455 185.268 254.849 185.642 255.326 185.642Z" fill="black" fill-opacity="0.1"/>
<path d="M261.148 170.886C261.381 170.886 261.611 170.796 261.787 170.618C272.558 159.683 288.357 161.56 288.507 161.58C289.016 161.644 289.453 161.294 289.513 160.803C289.577 160.31 289.228 159.861 288.737 159.797C288.05 159.709 271.913 157.773 260.507 169.355C260.158 169.71 260.162 170.279 260.517 170.628C260.691 170.8 260.92 170.886 261.148 170.886Z" fill="black" fill-opacity="0.1"/>
<path d="M302.981 162.508C303.054 162.508 303.128 162.5 303.202 162.48C303.681 162.358 303.973 161.871 303.851 161.39C303.779 161.099 296.204 132.029 272.382 116.445C271.976 116.177 271.415 116.287 271.14 116.706C270.867 117.122 270.984 117.678 271.401 117.95C294.621 133.141 302.038 161.544 302.11 161.831C302.212 162.235 302.577 162.508 302.981 162.508Z" fill="black" fill-opacity="0.1"/>
<path d="M301.236 155.691L301.497 155.152C301.729 154.669 307.146 143.173 301.421 129.721C295.738 116.369 280.626 113.67 262.928 111.722L260.572 111.464L262.165 113.219C265.724 117.145 267.168 122.13 268.699 127.408C270.327 133.021 272.008 138.826 276.33 144.189C284.804 154.701 299.996 155.627 300.641 155.661L301.236 155.691ZM264.914 113.754C281.087 115.632 294.69 118.501 299.765 130.424C304.488 141.514 301.094 151.399 300.118 153.809C297.214 153.519 284.768 151.785 277.731 143.057C273.635 137.977 272.004 132.348 270.425 126.905C269.048 122.156 267.74 117.632 264.914 113.754Z" fill="black" fill-opacity="0.1"/>
<path d="M300.415 154.97C300.767 154.97 301.1 154.761 301.244 154.417C301.435 153.958 301.218 153.433 300.761 153.24C300.635 153.188 288.197 147.89 281.615 136.741C274.988 125.515 273.872 120.758 273.859 120.712C273.749 120.229 273.262 119.92 272.789 120.03C272.307 120.136 271.998 120.613 272.104 121.098C272.148 121.299 273.25 126.11 280.065 137.656C286.959 149.333 299.537 154.681 300.068 154.902C300.182 154.948 300.301 154.97 300.415 154.97Z" fill="black" fill-opacity="0.1"/>
<path d="M302.328 150.541C302.34 150.541 302.354 150.541 302.366 150.541C302.863 150.521 303.246 150.102 303.228 149.605C303.198 148.918 302.374 132.683 289.026 123.403C288.622 123.12 288.061 123.219 287.776 123.627C287.492 124.034 287.594 124.595 288.001 124.878C300.623 133.653 301.424 149.519 301.43 149.678C301.45 150.162 301.849 150.541 302.328 150.541Z" fill="black" fill-opacity="0.1"/>
</svg>
